<?xml version="1.0" encoding="UTF-8"?>
<svg id="Calque_1" xmlns="http://www.w3.org/2000/svg" version="1.1" viewBox="0 0 595.28 841.89">
  <!-- Generator: Adobe Illustrator 29.0.1, SVG Export Plug-In . SVG Version: 2.1.0 Build 192)  -->
  <defs>
    <style>
      .st0 {
        fill: #f7f6f2;
      }

      .st0, .st1, .st2, .st3, .st4 {
        stroke-miterlimit: 10;
      }

      .st0, .st2, .st3, .st4 {
        stroke: #1d1d1b;
      }

      .st5 {
        fill: #333;
      }

      .st5, .st6, .st7 {
        isolation: isolate;
      }

      .st5, .st7 {
        font-family: CooperBlack, 'Cooper Black';
        font-size: 24px;
      }

      .st1 {
        fill: none;
        stroke: #000;
      }

      .st2 {
        display: none;
        fill: #fff;
      }

      .st3, .st7 {
        fill: #b8ddd1;
      }

      .st4 {
        fill: #f7b186;
      }
    </style>
  </defs>
  <rect class="st2" x="119.62" y="291.17" width="300.77" height="300.77"/>
  <path class="st2" d="M74,491"/>
  <path class="st2" d="M105,491"/>
  <path class="st3" d="M179.99,454.18c14.16-10.43,81.94-12.69,93.89,4.63,50.77,73.63-152.29,49.46-93.89-4.63h0Z"/>
  <path class="st4" d="M265.39,415.42c-15.97-17.96-55.04-22.09-75.21-8.39-18.94,12.58-6.18,37.19,13.35,35.26,15-1.48,27.24,2.61,49.73-.51,14.09-1.96,23.16-14.36,12.22-26.24l-.1-.12h.01Z"/>
  <path class="st0" d="M245.72,379.9c8.63,15.85-5.14,17.4-24.06,15.04-24.33-3.03-30.93-14.99-23.38-23.59,10.51-11.96,25.85-19.85,47.44,8.54h0Z"/>
  <g class="st6">
    <text class="st5" transform="translate(276.93 442.58)"><tspan x="0" y="0">Nutri</tspan></text>
  </g>
  <g class="st6">
    <text class="st7" transform="translate(297.64 464.36)"><tspan x="0" y="0">Form</tspan></text>
  </g>
  <rect class="st1" x="124.93" y="297.46" width="279.64" height="279.64"/>
  <path class="st1" d="M382.55,549.21h-238.09v-231.15h238.09v231.15Z"/>
  <path class="st1" d="M-17.4,355.17"/>
  <line class="st1" x1="144.47" y1="360.49" x2="382.55" y2="360.49"/>
  <line class="st1" x1="144.47" y1="395.82" x2="382.55" y2="395.82"/>
  <line class="st1" x1="144.47" y1="398.89" x2="382.55" y2="398.89"/>
  <line class="st1" x1="144.47" y1="446.07" x2="382.55" y2="446.07"/>
  <line class="st1" x1="144.47" y1="442.58" x2="382.55" y2="442.58"/>
  <line class="st1" x1="144.47" y1="504.99" x2="382.55" y2="504.99"/>
  <line class="st1" x1="144.31" y1="525.72" x2="382.4" y2="525.72"/>
  <line class="st1" x1="362.52" y1="549.21" x2="362.52" y2="318.06"/>
  <line class="st1" x1="169.33" y1="549.21" x2="169.33" y2="318.06"/>
  <line class="st1" x1="144.47" y1="338.83" x2="382.55" y2="338.83"/>
</svg>