<?xml version="1.0" encoding="UTF-8"?>
<svg id="Calque_1" xmlns="http://www.w3.org/2000/svg" version="1.1" viewBox="0 0 595.3 841.9">
  <!-- Generator: Adobe Illustrator 29.1.0, SVG Export Plug-In . SVG Version: 2.1.0 Build 142)  -->
  <defs>
    <style>
      .st0, .st1, .st2, .st3, .st4, .st5, .st6 {
        stroke-miterlimit: 10;
      }

      .st0, .st1, .st3, .st4, .st5, .st6 {
        stroke: #1d1d1b;
      }

      .st0, .st7 {
        fill: #b5ead7;
      }

      .st1 {
        fill: #f7f6f2;
      }

      .st2 {
        fill: none;
        stroke: #000;
      }

      .st3 {
        display: none;
      }

      .st3, .st5, .st6 {
        fill: #fff;
      }

      .st7 {
        font-size: 24px;
      }

      .st7, .st8, .st9 {
        isolation: isolate;
      }

      .st7, .st9 {
        font-family: CooperBlack, 'Cooper Black';
      }

      .st4 {
        fill: #ffb385;
      }

      .st9 {
        fill: #333;
        font-size: 23.5px;
      }

      .st6 {
        opacity: 0;
      }
    </style>
  </defs>
  <rect class="st5" x="169.3" y="360.5" width="193.2" height="144.5"/>
  <rect class="st6" x="158.9" y="344.7" width="218.9" height="175.4"/>
  <rect class="st3" x="119.6" y="291.2" width="300.8" height="300.8"/>
  <path class="st3" d="M74,491"/>
  <path class="st3" d="M105,491"/>
  <path class="st0" d="M180,454.2c14.2-10.4,81.9-12.7,93.9,4.6,50.8,73.6-152.3,49.5-93.9-4.6h0Z"/>
  <path class="st4" d="M265.4,415.4c-16-18-55-22.1-75.2-8.4-18.9,12.6-6.2,37.2,13.4,35.3,15-1.5,27.2,2.6,49.7-.5,14.1-2,23.2-14.4,12.2-26.2h-.1c0-.1,0-.1,0-.1Z"/>
  <path class="st1" d="M245.7,379.9c8.6,15.9-5.1,17.4-24.1,15-24.3-3-30.9-15-23.4-23.6,10.5-12,25.9-19.9,47.4,8.5h0Z"/>
  <g class="st8">
    <g class="st8">
      <g class="st8">
        <text class="st9" transform="translate(276.9 442.7) scale(1.1 1)"><tspan x="0" y="0">Nutri</tspan></text>
      </g>
    </g>
  </g>
  <g class="st8">
    <g class="st8">
      <g class="st8">
        <text class="st7" transform="translate(297.6 462.7)"><tspan x="0" y="0">Form</tspan></text>
      </g>
    </g>
  </g>
  <path class="st2" d="M-17.4,355.2"/>
  <line class="st5" x1="169.3" y1="395.8" x2="362.5" y2="395.8"/>
  <line class="st5" x1="169.3" y1="398.9" x2="362.5" y2="398.9"/>
  <line class="st5" x1="169.3" y1="446.1" x2="362.5" y2="446.1"/>
  <line class="st5" x1="169" y1="442.6" x2="362.5" y2="442.6"/>
</svg>